<?xml version="1.0" standalone="no"?>
<!DOCTYPE svg PUBLIC "-//W3C//DTD SVG 20010904//EN"
 "http://www.w3.org/TR/2001/REC-SVG-20010904/DTD/svg10.dtd">
<svg version="1.0" xmlns="http://www.w3.org/2000/svg"
 width="144.000000pt" height="144.000000pt" viewBox="0 0 144.000000 144.000000"
 preserveAspectRatio="xMidYMid meet">
<metadata>
Created by potrace 1.14, written by Peter Selinger 2001-2017
</metadata>
<g transform="translate(0.000000,144.000000) scale(0.100000,-0.100000)"
fill="#000000" stroke="none">
<path d="M694 1382 c-10 -9 -46 -40 -79 -67 -33 -28 -62 -52 -65 -55 -3 -3
-102 -86 -220 -185 -118 -98 -217 -182 -220 -185 -3 -3 -28 -25 -57 -48 l-52
-43 80 -97 c44 -53 84 -98 88 -100 4 -1 18 7 32 18 30 26 49 42 124 105 33 28
62 52 65 55 3 3 46 39 95 80 50 41 99 82 110 92 68 57 120 98 125 98 3 0 16
-10 30 -23 14 -12 63 -54 110 -92 47 -38 90 -74 96 -80 6 -5 31 -26 55 -47 24
-20 54 -45 67 -56 13 -11 41 -35 64 -54 23 -18 57 -48 77 -65 20 -18 39 -33
43 -33 11 0 169 191 166 201 -2 4 -37 35 -78 69 -41 34 -86 72 -100 83 -14 12
-79 67 -145 122 -138 115 -163 136 -179 150 -6 6 -51 44 -101 85 -49 41 -91
78 -93 83 -6 11 -17 8 -38 -11z"/>
<path d="M645 794 c-166 -27 -308 -156 -350 -315 -9 -32 -14 -119 -15 -245
l-1 -194 131 0 130 0 0 182 c0 161 2 186 20 222 48 99 178 128 268 60 59 -46
66 -70 68 -264 1 -96 3 -181 3 -187 1 -10 34 -13 129 -13 l128 0 -2 193 c-1
221 -4 240 -45 324 -83 172 -274 270 -464 237z"/>
</g>
</svg>
